Coordinates
version=1
nRows=16
nColumns=63
inDegrees=yes

Units are S.I. units (second, meters, Newtons, ...)
If the header above contains a line with 'inDegrees', this indicates whether rotational values are in degrees (yes) or radians (no).

endheader
time	pelvis_tilt	pelvis_list	pelvis_rotation	pelvis_tx	pelvis_ty	pelvis_tz	hip_flexion_r	hip_adduction_r	hip_rotation_r	knee_angle_r	knee_angle_r_beta	ankle_angle_r	subtalar_angle_r	mtp_angle_r	hip_flexion_l	hip_adduction_l	hip_rotation_l	knee_angle_l	knee_angle_l_beta	ankle_angle_l	subtalar_angle_l	mtp_angle_l	L5_S1_Flex_Ext	L5_S1_Lat_Bending	L5_S1_axial_rotation	L4_L5_Flex_Ext	L4_L5_Lat_Bending	L4_L5_axial_rotation	L3_L4_Flex_Ext	L3_L4_Lat_Bending	L3_L4_axial_rotation	L2_L3_Flex_Ext	L2_L3_Lat_Bending	L2_L3_axial_rotation	L1_L2_Flex_Ext	L1_L2_Lat_Bending	L1_L2_axial_rotation	L1_T12_Flex_Ext	L1_T12_Lat_Bending	L1_T12_axial_rotation	Abs_r3	Abs_r2	Abs_r1	Abs_t1	Abs_t2	neck_flexion	neck_bending	neck_rotation	arm_flex_r	arm_add_r	arm_rot_r	elbow_flex_r	pro_sup_r	wrist_flex_r	wrist_dev_r	arm_flex_l	arm_add_l	arm_rot_l	elbow_flex_l	pro_sup_l	wrist_flex_l	wrist_dev_l
0.000000	3.054798	-4.421546	90.657363	0.159632	0.658258	0.565032	7.092077	3.989012	-8.415715	14.759462	0.257601	41.856043	5.354311	0.000000	4.264957	-3.097818	-10.512941	12.649980	0.220784	41.357425	14.625130	0.000000	0.062309	0.672196	0.242310	0.115713	0.894021	0.257455	0.102367	1.634377	0.257455	0.071212	1.634377	0.212022	0.057860	1.370742	0.196877	0.035603	1.041232	0.181733	0.445064	7.604016	1.347658	0.000000	0.000000	16.757079	-2.375003	0.391269	2.517263	-11.216400	32.814605	53.367163	84.867544	11.747741	20.770768	26.617568	2.099939	103.647404	36.774994	89.452858	-2.924737	7.764823
0.016949	2.711970	-4.389654	90.034042	0.160941	0.657469	0.565394	7.209956	3.747353	-7.385237	15.119065	0.263877	41.859386	4.516400	0.000000	3.890133	-2.659149	-10.474302	12.032867	0.210013	41.208488	14.115579	0.000000	0.062834	0.614270	0.351634	0.116690	0.816979	0.373611	0.103231	1.493536	0.373611	0.071813	1.493536	0.307679	0.058348	1.252620	0.285702	0.035904	0.951504	0.263725	0.448820	6.948746	1.955681	0.000000	0.000000	16.642425	-2.253183	-0.617359	2.516112	-11.156068	32.855334	53.343572	81.701034	10.855421	22.749662	27.314814	2.385591	103.377004	37.517292	88.603891	3.958611	14.031933
0.033898	2.442694	-4.366779	89.586086	0.161975	0.656888	0.565729	7.287744	3.565737	-6.530848	15.353661	0.267972	41.812247	3.757486	0.000000	3.613054	-2.311202	-10.401156	11.542235	0.201450	41.098733	13.733639	0.000000	0.062868	0.569629	0.418781	0.116752	0.757606	0.444954	0.103286	1.384996	0.444954	0.071852	1.384996	0.366433	0.058379	1.161587	0.340259	0.035923	0.882355	0.314085	0.449059	6.443756	2.329132	0.000000	0.000000	16.548596	-2.154672	-1.266806	2.564900	-11.074506	32.992302	53.274995	79.540592	10.283505	24.165672	27.812481	2.504906	103.073656	38.126974	88.336072	8.968669	18.680112
0.050847	2.240908	-4.352604	89.293747	0.162761	0.656490	0.566028	7.331299	3.438098	-5.842150	15.478946	0.270159	41.725662	3.083944	0.000000	3.421739	-2.045845	-10.296389	11.162315	0.194819	41.023370	13.463041	0.000000	0.062463	0.537169	0.448375	0.115999	0.714435	0.476399	0.102620	1.306074	0.476399	0.071389	1.306074	0.392328	0.058003	1.095396	0.364305	0.035691	0.832075	0.336281	0.446164	6.076568	2.493728	0.000000	0.000000	16.477649	-2.077012	-1.591174	2.661223	-10.974248	33.217691	53.158144	78.255555	9.991127	25.064866	28.119779	2.478418	102.715515	38.605798	88.512485	12.298852	21.842422
0.067797	2.100545	-4.346809	89.137276	0.163322	0.656249	0.566284	7.346475	3.358366	-5.308747	15.510618	0.270711	41.610671	2.502152	0.000000	3.304207	-1.854947	-10.162888	10.877337	0.189845	40.977608	13.287512	0.000000	0.061672	0.515788	0.445041	0.114531	0.685999	0.472856	0.101321	1.254088	0.472856	0.070485	1.254088	0.389411	0.057269	1.051796	0.361596	0.035239	0.798956	0.333781	0.440518	5.834702	2.475184	0.000000	0.000000	16.431641	-2.017743	-1.624563	2.802676	-10.857832	33.523683	52.989731	77.715257	9.937420	25.493310	28.245918	2.326658	102.280735	38.955524	88.996214	14.142578	23.651922
0.084746	2.015542	-4.349074	89.096924	0.163683	0.656142	0.566486	7.339128	3.320474	-4.920238	15.464373	0.269904	41.478311	2.018487	0.000000	3.248477	-1.730377	-10.003540	10.671533	0.186253	40.956658	13.190785	0.000000	0.060550	0.504383	0.413402	0.112448	0.670830	0.439240	0.099478	1.226357	0.439240	0.069203	1.226357	0.361727	0.056227	1.028538	0.335889	0.034598	0.781289	0.310051	0.432504	5.705682	2.299217	0.000000	0.000000	16.412630	-1.974406	-1.401077	2.986853	-10.727792	33.902460	52.766468	77.789035	10.081518	25.497072	28.200107	2.070160	101.747471	39.177911	89.650342	14.693263	24.241670
0.101695	1.979834	-4.359081	89.152941	0.163869	0.656143	0.566628	7.315114	3.318353	-4.666228	15.355909	0.268011	41.339622	1.639326	0.000000	3.242566	-1.664003	-9.821232	10.529132	0.183768	40.955730	13.156587	0.000000	0.059150	0.501850	0.358082	0.109848	0.667461	0.380462	0.097178	1.220199	0.380462	0.067603	1.220199	0.313322	0.054927	1.023373	0.290941	0.033798	0.777366	0.268561	0.422504	5.677030	1.991543	0.000000	0.000000	16.422674	-1.944542	-0.954816	3.211350	-10.586666	34.346204	52.485068	78.346222	10.382556	25.122219	27.991557	1.729455	101.093876	39.274719	90.337954	14.144323	23.744726
0.118644	1.987357	-4.376510	89.285580	0.163905	0.656226	0.566699	7.280289	3.345935	-4.536316	15.200923	0.265306	41.205640	1.371046	0.000000	3.274495	-1.647694	-9.618850	10.434366	0.182114	40.970033	13.168650	0.000000	0.057526	0.507087	0.283704	0.106831	0.674425	0.301436	0.094509	1.232931	0.301436	0.065746	1.232931	0.248241	0.053419	1.034051	0.230510	0.032870	0.785477	0.212778	0.410901	5.736266	1.577878	0.000000	0.000000	16.463830	-1.925691	-0.319883	3.473761	-10.436988	34.847097	52.142242	79.256156	10.799667	24.414818	27.629478	1.325076	100.298104	39.247706	90.922133	12.689176	22.294150
0.135593	2.032046	-4.401042	89.475091	0.163815	0.656368	0.566692	7.240507	3.397151	-4.520105	15.015111	0.262063	41.087406	1.220023	0.000000	3.332281	-1.673319	-9.399281	10.371466	0.181016	40.994778	13.210702	0.000000	0.055731	0.518990	0.194893	0.103498	0.690256	0.207074	0.091560	1.261871	0.207074	0.063695	1.261871	0.170532	0.051752	1.058324	0.158351	0.031845	0.803915	0.146170	0.398080	5.870914	1.083938	0.000000	0.000000	16.538156	-1.915394	0.469621	3.771681	-10.281296	35.397321	51.734703	80.388170	11.291984	23.420936	27.123079	0.877557	99.338311	39.098632	91.265964	10.521237	20.023002
0.152542	2.107838	-4.432357	89.701726	0.163623	0.656543	0.566598	7.201625	3.465934	-4.607198	14.814172	0.258556	40.995956	1.192634	0.000000	3.403944	-1.732746	-9.165413	10.324662	0.180199	41.025175	13.266473	0.000000	0.053819	0.536456	0.096273	0.099947	0.713486	0.102290	0.088419	1.304339	0.102290	0.061509	1.304339	0.084238	0.049976	1.093941	0.078221	0.030752	0.830970	0.072204	0.384421	6.068495	0.535439	0.000000	0.000000	16.647710	-1.911192	1.379595	4.102705	-10.122125	35.989057	51.259163	81.611600	11.818642	22.186640	26.481571	0.407428	98.192650	38.829255	91.232530	7.833924	17.064340
0.169492	2.208667	-4.470138	89.945735	0.163354	0.656727	0.566409	7.169499	3.546215	-4.787195	14.613803	0.255059	40.942329	1.295258	0.000000	3.477501	-1.817843	-8.920131	10.278185	0.179388	41.056433	13.319694	0.000000	0.051843	0.558382	-0.007534	0.096278	0.742648	-0.008005	0.085173	1.357651	-0.008005	0.059251	1.357651	-0.006592	0.048141	1.138653	-0.006121	0.029623	0.864934	-0.005651	0.370309	6.316532	-0.041903	0.000000	0.000000	16.794550	-1.910625	2.375935	4.464428	-9.962011	36.614489	50.712334	82.795782	12.338774	20.757997	25.714163	-0.064776	96.839276	38.441336	90.684915	4.820652	13.551224
0.186441	2.304233	-4.547840	90.127695	0.163081	0.656759	0.566134	7.222093	3.600631	-5.056251	14.489803	0.252895	41.040213	1.696216	0.000000	3.552032	-1.892181	-8.757123	10.164676	0.177407	41.121383	13.432202	0.000000	0.052247	0.580149	-0.090849	0.097028	0.771598	-0.096528	0.085836	1.410574	-0.096528	0.059713	1.410574	-0.079493	0.048516	1.183040	-0.073815	0.029854	0.898651	-0.068137	0.373194	6.562760	-0.505278	0.000000	0.000000	17.070116	-1.904862	3.321386	4.808701	-9.781035	37.102850	50.054583	83.722706	12.949637	19.250146	24.683305	-0.422935	94.617466	37.930661	88.070335	2.505638	9.639907
0.203390	2.435028	-4.628841	90.290030	0.162734	0.656739	0.565772	7.295601	3.668077	-5.457635	14.404655	0.251409	41.208177	2.329795	0.000000	3.595393	-1.997552	-8.564592	10.020659	0.174893	41.142929	13.439639	0.000000	0.051505	0.607830	-0.170124	0.095651	0.808414	-0.180757	0.084618	1.477878	-0.180757	0.058866	1.477878	-0.148859	0.047828	1.239487	-0.138226	0.029430	0.941529	-0.127593	0.367898	6.875894	-0.946179	0.000000	0.000000	17.384079	-1.918792	4.299222	5.223120	-9.623206	37.751177	49.299502	83.977878	13.426778	17.656945	23.614919	-0.694866	92.355604	37.289033	84.543691	-0.051662	5.151844
0.220339	2.555803	-4.718836	90.374684	0.162449	0.656616	0.565278	7.405618	3.715131	-5.874124	14.389080	0.251137	41.450225	3.097670	0.000000	3.594289	-2.091108	-8.503674	9.823451	0.171452	41.152160	13.515311	0.000000	0.050653	0.634747	-0.238884	0.094068	0.844214	-0.253814	0.083218	1.543324	-0.253814	0.057892	1.543324	-0.209024	0.047037	1.294377	-0.194093	0.028943	0.983223	-0.179163	0.361812	7.180388	-1.328602	0.000000	0.000000	17.755663	-1.917478	5.298716	5.732251	-9.470657	38.648743	48.402915	83.035310	13.644774	16.081726	22.429701	-0.939931	89.519326	36.595504	80.433392	-2.174059	0.803133
0.237288	2.684108	-4.795054	90.410315	0.162151	0.656439	0.564614	7.514777	3.753251	-6.357414	14.432224	0.251890	41.744823	3.974789	0.000000	3.520639	-2.174349	-8.297337	9.555739	0.166779	41.110010	13.370364	0.000000	0.048736	0.662809	-0.300633	0.090508	0.881536	-0.319422	0.080068	1.611554	-0.319422	0.055700	1.611554	-0.263053	0.045256	1.351600	-0.244264	0.027848	1.026691	-0.225474	0.348117	7.497830	-1.672028	0.000000	0.000000	18.135359	-1.901874	6.279643	6.319676	-9.349923	39.714537	47.389831	81.237213	13.541465	14.490747	21.243713	-1.102086	86.682932	35.787517	75.650682	-4.128293	-3.502911
0.254237	2.806172	-4.856698	90.382572	0.161914	0.656188	0.563767	7.625736	3.781255	-6.827509	14.546769	0.253889	42.068407	4.823925	0.000000	3.370080	-2.238152	-7.928646	9.212780	0.160793	41.020326	12.981841	0.000000	0.046870	0.688975	-0.348731	0.087042	0.916337	-0.370527	0.077002	1.675173	-0.370527	0.053568	1.675173	-0.305140	0.043523	1.404957	-0.283344	0.026781	1.067222	-0.261549	0.334787	7.793821	-1.939539	0.000000	0.000000	18.510143	-1.882522	7.143527	6.899083	-9.219956	40.634924	46.327526	79.097107	13.029801	13.009377	20.091160	-1.205699	84.015225	34.858723	70.273614	-5.577951	-7.480643
